<?xml version="1.0" standalone="no"?>
<!DOCTYPE svg PUBLIC "-//W3C//DTD SVG 20010904//EN"
 "http://www.w3.org/TR/2001/REC-SVG-20010904/DTD/svg10.dtd">
<svg version="1.0" xmlns="http://www.w3.org/2000/svg"
 width="700.000000pt" height="700.000000pt" viewBox="0 0 700.000000 700.000000"
 preserveAspectRatio="xMidYMid meet">
<metadata>
Created by potrace 1.14, written by Peter Selinger 2001-2017
</metadata>
<g transform="translate(0.000000,700.000000) scale(0.100000,-0.100000)"
fill="#000000" stroke="none">
<path d="M3448 6993 c-2 -5 -5 -99 -7 -211 l-2 -203 38 3 38 3 3 208 3 207
-35 0 c-19 0 -36 -3 -38 -7z"/>
<path d="M3095 6952 c-8 -19 -15 -38 -15 -42 0 -4 -18 -63 -39 -131 -22 -68
-46 -147 -54 -176 l-15 -51 31 3 c18 2 37 4 43 4 6 1 17 21 24 46 14 50 18 52
113 60 l67 5 27 -44 c29 -48 42 -55 85 -46 l27 5 -70 145 c-133 275 -119 255
-168 256 -39 1 -43 -1 -56 -34z m89 -124 c44 -101 45 -98 -18 -98 -31 0 -56 3
-56 6 0 11 32 128 36 136 9 15 15 8 38 -44z"/>
<path d="M3721 6869 c-132 -28 -168 -201 -58 -283 45 -33 133 -29 182 8 65 50
82 124 45 196 -32 63 -98 94 -169 79z m78 -68 c23 -13 36 -66 26 -110 -20 -92
-140 -83 -149 11 -9 88 52 137 123 99z"/>
<path d="M4042 6831 c-5 -3 -21 -55 -35 -116 -43 -185 -42 -173 -13 -181 14
-3 32 -4 39 -1 7 2 23 48 36 100 22 95 43 126 79 121 6 -1 19 -2 27 -3 30 -2
33 -42 10 -149 -15 -71 -18 -105 -11 -107 65 -19 63 -20 81 57 40 183 40 182
6 220 -24 27 -36 32 -72 32 -24 0 -54 -4 -65 -8 -16 -6 -22 -3 -26 12 -6 20
-39 34 -56 23z"/>
<path d="M2550 6762 c-70 -35 -92 -130 -51 -215 39 -81 111 -106 193 -67 43
20 78 64 78 98 0 23 -64 2 -88 -28 -28 -36 -55 -38 -87 -5 -33 32 -31 41 8 49
47 9 141 38 150 47 5 4 0 27 -11 53 -35 79 -115 107 -192 68z m104 -64 c9 -12
16 -26 16 -30 0 -4 -23 -14 -52 -23 -57 -17 -73 -9 -62 30 14 47 72 60 98 23z"/>
<path d="M4435 6710 c-52 -21 -95 -101 -95 -176 0 -39 5 -51 33 -79 31 -31 88
-55 132 -55 11 0 36 10 55 21 l34 21 -24 20 c-17 14 -32 18 -50 13 -53 -13
-72 -10 -92 15 -13 18 -16 32 -11 47 l8 21 60 -19 c33 -11 67 -21 75 -24 8 -2
23 -6 32 -10 37 -15 51 85 20 144 -29 57 -115 87 -177 61z m109 -72 c17 -24
22 -68 8 -68 -5 0 -32 7 -60 15 -57 17 -65 35 -30 59 32 22 64 20 82 -6z"/>
<path d="M2318 6688 c-18 -6 -26 -15 -23 -28 3 -15 -1 -17 -23 -11 -15 4 -33
6 -39 5 -7 -1 -20 -2 -29 -3 -9 0 -31 -16 -50 -35 -30 -30 -34 -40 -34 -85 0
-161 155 -245 237 -129 l22 31 11 -43 c6 -23 9 -48 6 -56 -8 -22 -68 -43 -90
-31 -21 10 -96 -7 -96 -23 0 -5 12 -18 28 -30 22 -18 35 -21 75 -16 65 7 128
43 148 84 15 29 15 39 4 82 -16 60 -104 288 -113 294 -4 2 -19 -1 -34 -6z
m-26 -92 c24 -11 59 -87 53 -115 -11 -59 -74 -81 -111 -38 -75 84 -33 192 58
153z"/>
<path d="M1883 6628 c-13 -6 -23 -14 -23 -18 0 -4 13 -31 30 -61 16 -30 30
-57 30 -61 0 -5 -18 -8 -39 -8 -67 0 -124 -65 -114 -130 11 -79 75 -162 134
-175 39 -9 97 20 125 62 16 23 24 29 32 21 13 -13 62 7 62 25 0 6 -15 38 -34
71 -18 34 -47 86 -64 116 -101 185 -96 179 -139 158z m56 -203 c54 -27 82
-120 49 -161 -26 -34 -92 -14 -121 36 -19 31 -25 89 -13 109 6 10 36 27 54 30
2 1 16 -6 31 -14z"/>
<path d="M4897 6466 c-53 -96 -97 -179 -97 -184 0 -9 233 -142 248 -142 5 0
14 12 21 26 10 22 9 28 -6 40 -10 7 -21 14 -25 14 -6 0 -125 67 -137 76 -2 2
23 49 54 106 82 145 105 190 105 199 0 7 -51 39 -63 39 -2 0 -47 -78 -100
-174z"/>
<path d="M5316 6425 c-22 -33 -20 -38 13 -58 28 -16 29 -16 45 8 22 33 21 37
-13 57 -29 16 -30 16 -45 -7z"/>
<path d="M4200 6310 c4 -30 15 -59 27 -72 21 -23 63 -117 63 -141 0 -7 -8 -3
-18 9 -25 30 -82 71 -125 89 l-37 15 0 -50 c0 -47 3 -52 31 -68 88 -48 157
-102 198 -155 12 -15 12 -17 0 -13 -25 9 -297 86 -303 86 -6 0 -29 -81 -24
-84 2 -2 60 -18 129 -37 l127 -34 -15 -50 c-20 -66 -62 -164 -63 -144 0 13
-11 15 -61 11 -65 -5 -79 3 -79 45 0 24 42 43 96 43 30 0 34 3 34 28 0 46 -13
55 -62 48 -93 -14 -145 -75 -128 -150 15 -65 72 -109 143 -108 32 1 38 -2 32
-16 -3 -9 -11 -36 -18 -59 -10 -38 -9 -45 17 -83 15 -23 31 -38 35 -34 5 5 36
86 70 179 34 94 69 189 78 212 14 38 17 41 40 32 40 -15 51 -11 63 27 7 19 10
36 8 38 -1 1 -14 9 -28 18 -14 8 -26 25 -27 37 -7 92 -75 345 -100 373 -13 14
-94 58 -107 58 -2 0 0 -22 4 -50z"/>
<path d="M5234 6293 c-21 -32 -57 -89 -81 -126 -23 -37 -43 -70 -43 -72 0 -3
14 -14 31 -24 l32 -19 78 125 c44 68 79 126 79 128 0 2 -13 13 -30 25 l-30 21
-36 -58z"/>
<path d="M5366 6164 c-70 -91 -127 -166 -125 -167 2 -1 14 -11 26 -21 19 -15
25 -16 38 -6 12 10 16 9 21 -6 15 -50 26 -65 55 -83 84 -51 215 37 226 153 6
58 -27 104 -88 125 l-47 16 39 50 c21 28 39 54 39 58 0 9 -40 46 -50 47 -3 0
-63 -75 -134 -166z m153 -71 c24 -29 21 -50 -13 -100 -42 -64 -107 -74 -134
-20 -11 22 -10 32 3 64 33 78 105 107 144 56z"/>
<path d="M1558 6296 c-108 -45 -120 -179 -23 -264 42 -37 72 -47 120 -38 36 7
88 45 105 76 15 28 21 78 10 85 -18 11 -65 -19 -66 -42 -2 -34 -23 -53 -58
-53 -32 0 -56 15 -56 35 0 5 34 32 75 60 92 61 93 66 25 117 -41 30 -93 40
-132 24z m77 -70 c23 -17 13 -33 -41 -67 -38 -23 -54 -19 -54 17 0 56 50 83
95 50z"/>
<path d="M1233 6189 l-21 -22 131 -158 c73 -87 136 -158 140 -159 16 0 62 50
52 58 -6 4 -35 36 -65 72 -30 36 -59 70 -65 76 -5 6 -36 44 -69 83 -32 39 -64
71 -70 71 -6 0 -21 -10 -33 -21z"/>
<path d="M3348 6085 c-2 -1 -34 -5 -72 -9 -83 -8 -88 -10 -82 -44 2 -15 5 -32
5 -38 1 -11 24 -11 160 0 35 3 69 2 75 -2 11 -7 16 -8 49 -10 14 -2 17 -12 16
-59 0 -43 -3 -52 -9 -37 -7 18 -15 21 -57 18 -155 -11 -176 -18 -190 -61 -23
-70 12 -160 101 -258 48 -53 56 -58 70 -46 15 13 14 17 -17 50 -110 115 -118
209 -18 212 20 0 55 3 79 5 l42 4 0 -114 c0 -113 1 -116 27 -141 l28 -25 -24
0 c-28 0 -91 -37 -91 -54 0 -9 17 -40 36 -65 2 -2 17 8 34 23 36 30 62 33 84
10 23 -22 20 -41 -10 -71 -22 -22 -32 -25 -70 -20 -54 6 -101 40 -153 111 -36
49 -81 79 -81 54 0 -16 69 -114 110 -157 52 -53 93 -73 151 -73 65 1 102 28
118 84 15 51 4 88 -37 131 l-26 28 -1 215 c0 119 3 221 7 226 3 6 17 12 30 12
37 2 47 13 41 49 -3 17 -7 34 -9 36 -2 2 -55 6 -117 7 -61 1 -131 5 -154 7
-23 3 -43 4 -45 2z"/>
<path d="M1192 5997 l-22 -23 45 -79 c25 -44 45 -83 45 -87 0 -10 -29 1 -60
22 -14 10 -45 27 -69 40 l-44 22 -25 -25 -25 -26 51 -85 c28 -47 47 -86 42
-86 -5 0 -43 18 -84 40 -41 22 -80 40 -88 40 -7 0 -21 -12 -31 -25 l-17 -24
140 -70 140 -70 25 25 c14 14 25 28 25 32 0 4 -21 41 -45 82 -25 41 -45 78
-45 82 0 4 28 -8 63 -28 107 -61 102 -59 132 -31 l28 25 -58 108 c-31 60 -67
121 -79 137 l-22 27 -22 -23z"/>
<path d="M2855 6005 c-5 -1 -54 -15 -108 -30 -96 -27 -98 -29 -93 -54 6 -25 6
-25 -6 -5 l-13 22 -92 -37 c-51 -20 -93 -40 -93 -44 0 -4 6 -23 14 -42 l15
-34 122 49 c68 28 126 50 129 50 4 0 18 -39 33 -87 l26 -87 -27 -39 c-35 -51
-76 -76 -100 -61 -31 21 -10 77 45 114 l35 24 -26 23 c-36 30 -57 29 -94 -5
-57 -53 -55 -130 4 -181 19 -17 40 -31 47 -32 7 -1 25 -2 40 -3 16 -2 45 5 64
15 43 22 50 19 59 -27 7 -40 35 -62 87 -71 l36 -5 -15 48 c-8 27 -21 72 -29
99 -8 28 -30 106 -49 175 -20 69 -36 126 -36 127 0 1 16 7 35 13 31 10 34 15
29 38 -12 54 -12 55 -39 47z"/>
<path d="M2029 5941 c-14 -5 -35 -14 -48 -21 l-23 -12 33 -29 c36 -30 68 -36
102 -18 31 17 72 13 136 -12 83 -33 87 -38 49 -64 -18 -12 -69 -41 -113 -64
-108 -58 -110 -60 -88 -99 10 -18 22 -32 26 -32 4 0 38 17 75 38 118 66 117
66 136 25 9 -20 16 -37 14 -38 -2 -1 -23 -14 -48 -28 -25 -14 -51 -35 -58 -47
-31 -50 41 -176 116 -201 52 -17 85 -18 133 -1 39 13 45 12 80 -7 31 -18 41
-19 63 -10 14 7 26 15 26 19 0 3 -18 17 -40 30 -31 19 -40 31 -40 53 -1 82
-77 129 -122 75 -21 -23 -23 -59 -6 -76 18 -18 -5 -35 -47 -35 -44 0 -85 35
-85 74 0 31 33 61 106 98 l42 20 -39 73 c-21 40 -39 76 -39 79 0 3 16 13 35
22 41 19 41 22 15 64 -12 20 -25 31 -34 27 -8 -3 -45 10 -83 30 -140 72 -205
87 -274 67z"/>
<path d="M5681 5930 c-46 -20 -82 -52 -103 -93 -26 -50 -25 -89 3 -134 36 -57
82 -80 152 -74 41 3 3 62 -45 67 -18 2 -39 12 -45 21 -18 23 -16 68 2 83 13
10 26 1 83 -59 l68 -71 26 28 c85 92 41 225 -79 238 -21 2 -49 -1 -62 -6z
m103 -73 c21 -16 24 -60 6 -82 -12 -14 -18 -11 -52 22 -21 20 -38 43 -38 49 0
25 56 32 84 11z"/>
<path d="M4466 5815 c-11 -19 -17 -37 -15 -39 10 -9 170 -86 179 -86 12 0 40
62 31 72 -8 9 -159 88 -169 88 -4 0 -16 -16 -26 -35z"/>
<path d="M4672 5722 l-21 -38 82 -49 c45 -28 96 -63 114 -78 l33 -29 -53 -69
-52 -68 -52 -1 c-88 0 -137 37 -94 72 22 17 58 16 114 -2 32 -11 41 1 35 47
-6 50 -97 73 -151 38 -28 -18 -57 -71 -57 -106 0 -44 39 -106 78 -124 20 -10
39 -19 41 -21 2 -1 -11 -22 -28 -46 l-31 -44 16 -53 c19 -64 0 -79 169 139 71
91 131 168 134 172 7 8 109 -71 215 -165 37 -34 71 -63 75 -65 4 -1 19 11 34
26 l28 29 -102 94 c-56 52 -106 96 -113 98 -6 2 -13 7 -16 11 -8 12 -173 140
-180 140 -3 0 -16 -9 -28 -20 -26 -24 -28 -19 -6 15 16 24 15 24 -53 68 -114
73 -107 71 -131 29z"/>
<path d="M5876 5629 c-60 -48 -112 -91 -117 -96 -5 -5 2 -22 15 -38 l23 -29
64 51 c104 81 137 91 164 49 13 -20 21 -23 43 -17 15 4 27 13 26 19 -1 7 -2
19 -2 27 -2 17 -51 44 -69 38 -15 -6 -17 9 -3 23 6 6 2 19 -13 36 l-22 26
-109 -89z"/>
<path d="M4325 5640 c-14 -27 -25 -51 -25 -53 0 -2 19 -4 41 -5 49 -2 69 -16
69 -46 -1 -28 -17 -48 -67 -79 -46 -29 -52 -46 -27 -71 55 -56 158 46 157 155
-1 25 -8 60 -17 78 -17 31 -69 71 -93 71 -7 0 -24 -22 -38 -50z"/>
<path d="M1921 5549 c-110 -85 -273 -238 -265 -250 3 -5 -1 -9 -9 -9 -8 0 -51
-40 -96 -88 l-80 -89 27 -26 c29 -28 48 -34 54 -18 7 19 192 211 203 211 15 0
68 -56 64 -68 -2 -5 -35 -44 -72 -85 -107 -118 -107 -119 -83 -152 11 -16 28
-19 101 -21 103 -1 115 10 61 59 l-36 32 50 55 50 55 75 -79 76 -78 55 7 c30
3 54 10 52 15 -2 4 -74 81 -161 171 l-158 162 28 29 c15 17 39 38 53 48 l26
18 48 -60 c27 -34 80 -102 118 -152 39 -50 77 -95 86 -100 17 -10 88 -9 103 0
5 3 -56 87 -135 188 l-144 183 31 24 31 25 -20 27 c-10 14 -24 28 -31 31 -6 3
-52 -26 -102 -65z"/>
<path d="M840 5574 c-103 -44 -135 -153 -70 -240 75 -100 218 -82 266 32 19
46 18 80 -7 130 -35 73 -119 107 -189 78z m90 -79 c37 -19 63 -66 54 -100 -15
-61 -96 -70 -148 -16 -36 38 -41 72 -15 105 24 30 64 34 109 11z"/>
<path d="M6090 5464 c0 -27 20 -54 40 -54 25 0 59 -45 53 -69 -9 -35 -32 -31
-83 14 -65 57 -85 68 -120 60 -87 -19 -87 -134 1 -183 21 -12 28 -22 25 -37
-3 -11 3 -31 14 -45 l19 -25 28 26 c15 15 62 49 104 77 54 36 79 59 83 78 10
38 -35 127 -78 153 -40 25 -86 28 -86 5z m-17 -148 l38 -34 -23 -16 c-33 -23
-64 -20 -87 10 -20 25 -18 51 3 66 19 13 30 9 69 -26z"/>
<path d="M4960 5283 c-27 -11 -63 -43 -82 -74 -33 -54 -45 -232 -18 -264 18
-22 26 -11 29 39 8 164 59 244 132 206 27 -15 24 -39 -12 -76 -31 -32 -31 -33
-17 -70 l15 -36 34 34 c52 53 73 61 94 38 17 -19 17 -22 -4 -71 -36 -88 -21
-159 42 -197 45 -29 52 -28 99 10 l41 32 -37 13 c-63 21 -96 51 -96 84 0 17 4
28 8 25 20 -12 73 -15 99 -5 15 5 43 24 60 41 l33 32 22 -21 23 -22 33 27 32
27 -76 93 c-81 99 -75 96 -126 54 -15 -13 -14 -17 18 -59 28 -37 32 -48 23
-64 -21 -40 -73 -43 -105 -8 -9 10 -25 19 -34 19 -12 0 -17 8 -17 26 0 32 -13
44 -55 53 -24 5 -33 12 -34 27 -3 65 -66 109 -124 87z"/>
<path d="M587 5246 c-27 -25 -43 -81 -34 -116 4 -16 1 -19 -17 -14 -17 4 -25
-1 -35 -22 -16 -35 -16 -35 131 -117 l118 -66 15 30 c9 16 13 34 10 38 -3 5
-41 30 -86 56 -90 52 -109 77 -87 121 20 42 60 36 156 -20 43 -25 83 -46 88
-46 10 0 39 59 32 65 -2 2 -48 29 -102 59 -111 63 -148 70 -189 32z"/>
<path d="M3346 5228 c6 -42 15 -101 34 -207 42 -236 -38 -461 -259 -726 -109
-130 -159 -208 -188 -293 -24 -72 -28 -99 -27 -207 1 -80 6 -115 27 -177 56
-165 187 -330 344 -434 64 -43 83 -60 77 -73 -3 -9 -15 -36 -24 -61 -54 -136
-171 -302 -296 -419 -176 -164 -366 -262 -614 -317 -101 -22 -349 -27 -455 -8
-285 51 -554 198 -733 403 -55 62 -142 175 -142 184 0 2 -18 37 -40 77 -38 69
-96 221 -107 279 -8 45 -16 38 -9 -9 4 -25 9 -61 12 -80 70 -484 321 -988 674
-1354 417 -432 977 -703 1575 -763 134 -13 449 -7 579 11 974 138 1769 809
2066 1741 34 108 65 233 75 305 4 24 8 47 10 51 3 3 6 37 9 75 l5 69 -18 -65
c-75 -267 -210 -478 -417 -649 -178 -148 -381 -239 -618 -279 -56 -9 -309 -9
-376 1 -299 43 -559 188 -785 440 -84 94 -237 382 -222 420 3 8 57 57 119 110
63 52 131 115 151 139 104 120 176 260 223 433 23 88 27 120 28 260 1 185 -4
224 -45 360 -37 120 -87 221 -168 341 -74 110 -113 157 -213 257 -74 73 -230
197 -248 197 -5 0 -6 -15 -4 -32z"/>
<path d="M6296 5227 c-10 -7 -16 -22 -14 -32 2 -14 -13 -28 -62 -57 -130 -76
-142 -95 -99 -164 23 -38 23 -38 50 -23 16 8 18 17 14 42 -6 31 -3 33 67 74
l73 42 17 -21 c15 -20 19 -21 42 -9 20 11 23 18 16 32 -16 28 -12 34 31 59
l42 23 -24 18 c-26 20 -65 24 -89 9 -10 -6 -20 -4 -30 5 -14 12 -19 13 -34 2z"/>
<path d="M1425 5033 c-22 -30 -44 -60 -50 -66 -17 -20 -84 -125 -130 -203
l-44 -73 36 -22 36 -23 21 27 22 27 173 -104 174 -104 48 20 c27 12 49 24 49
27 0 3 -73 50 -162 104 -90 53 -180 107 -201 120 l-38 23 37 56 37 56 111 -81
c61 -45 137 -99 168 -121 l57 -39 52 20 52 19 -174 127 c-96 69 -182 132 -192
139 -18 13 -17 15 3 41 24 30 22 37 -18 65 l-27 19 -40 -54z"/>
<path d="M5462 4997 c-29 -22 -30 -25 -17 -43 22 -29 19 -37 -27 -66 -24 -14
-94 -58 -157 -97 -63 -39 -121 -77 -129 -85 -14 -14 -23 -103 -11 -108 6 -3
79 41 316 190 l82 51 29 -47 c46 -77 47 -75 -19 -110 -58 -31 -60 -31 -72 -12
-15 25 -39 26 -59 3 -36 -41 -62 -181 -33 -177 6 1 24 5 40 8 28 6 32 3 58
-44 16 -27 32 -50 37 -50 5 0 25 9 45 21 l35 21 -30 53 c-16 29 -30 55 -30 58
0 3 26 20 57 37 55 31 58 32 70 14 39 -59 36 -57 71 -37 17 10 32 22 32 26 0
27 -234 417 -250 417 -3 0 -20 -11 -38 -23z"/>
<path d="M321 4987 c-6 -15 -15 -38 -20 -51 -8 -18 0 -43 40 -126 27 -56 49
-108 49 -115 0 -8 -27 -2 -82 20 l-83 33 -14 -35 c-8 -19 -10 -38 -5 -42 23
-20 375 -154 384 -145 5 5 12 21 15 37 7 25 4 29 -49 52 -48 21 -60 32 -76 67
-10 23 -17 45 -14 49 2 4 30 10 61 14 89 10 127 16 144 21 18 5 56 80 46 90
-4 4 -70 -6 -147 -21 -77 -15 -143 -26 -145 -23 -3 2 -25 49 -49 103 -43 95
-45 98 -55 72z"/>
<path d="M6301 4969 c-20 -9 -49 -31 -66 -48 -72 -78 -12 -231 90 -231 29 0
28 -2 14 39 -7 20 -20 33 -36 37 -22 6 -43 38 -43 65 0 11 37 49 49 49 5 0 26
-38 47 -85 21 -47 42 -85 47 -85 19 0 75 41 93 67 25 39 23 112 -5 152 -44 61
-112 75 -190 40z m128 -66 c30 -25 34 -60 11 -83 -11 -11 -24 -20 -29 -20 -7
0 -51 89 -51 104 0 4 19 11 41 15 4 0 16 -7 28 -16z"/>
<path d="M6484 4658 c-33 -15 -43 -48 -38 -128 4 -76 -6 -103 -32 -93 -35 13
-50 87 -23 119 7 8 4 21 -9 44 l-20 31 -21 -27 c-44 -56 -27 -159 35 -214 42
-36 83 -37 121 -3 23 22 24 30 23 106 -3 106 -3 107 14 107 33 0 63 -88 36
-105 -12 -7 15 -65 30 -65 24 0 43 51 36 96 -14 108 -82 166 -152 132z"/>
<path d="M1161 4607 c-79 -205 -102 -269 -99 -273 2 -2 20 -10 40 -18 l35 -15
57 146 c31 81 53 150 49 153 -4 4 -23 12 -41 18 -30 10 -34 9 -41 -11z"/>
<path d="M1316 4591 c-14 -23 -86 -225 -86 -242 0 -10 8 -25 17 -34 27 -28 77
-12 160 52 72 55 76 56 89 38 21 -28 17 -42 -16 -66 -60 -45 -56 -121 6 -127
28 -3 35 2 60 42 22 35 37 47 69 56 34 10 40 15 41 39 1 27 0 28 -41 24 -42
-5 -42 -5 -59 41 -19 49 -55 76 -91 68 -11 -2 -46 -23 -77 -48 l-57 -44 25 73
c15 39 30 79 35 88 5 11 4 21 -4 27 -20 17 -64 25 -71 13z"/>
<path d="M5718 4538 c-31 -11 -32 -15 -19 -51 10 -24 7 -26 -132 -82 -188 -76
-251 -104 -245 -111 3 -3 0 -25 -8 -50 -7 -24 -10 -44 -5 -44 4 0 102 38 217
85 115 47 212 85 215 85 3 0 13 -16 22 -35 l17 -35 35 17 c19 9 35 21 34 27
-1 28 -78 201 -90 203 -8 1 -26 -3 -41 -9z"/>
<path d="M5175 4320 l-29 -30 37 -38 37 -38 -54 -79 c-39 -56 -51 -82 -43 -88
15 -9 109 91 138 147 25 46 19 93 -14 123 -37 33 -43 33 -72 3z"/>
<path d="M6404 3195 c-9 -13 -18 -41 -21 -62 -4 -31 1 -46 26 -80 17 -24 31
-44 31 -46 0 -2 -16 -1 -35 1 -29 3 -35 1 -36 -14 0 -11 -2 -29 -5 -40 -3 -19
2 -23 40 -28 23 -4 54 -9 67 -11 145 -25 208 -36 229 -40 14 -3 39 -8 55 -10
17 -3 56 -10 89 -16 32 -6 60 -8 62 -6 11 10 15 87 5 88 -6 1 -14 2 -18 3 -5
1 -33 6 -63 10 -109 16 -243 46 -285 65 -58 26 -82 70 -65 120 6 20 13 41 16
46 4 11 -45 45 -65 45 -6 0 -18 -11 -27 -25z"/>
<path d="M478 3147 c-76 -38 -101 -110 -112 -324 -9 -170 -31 -208 -121 -208
-64 0 -84 15 -122 94 -37 75 -41 180 -9 237 19 34 66 76 99 87 8 2 8 14 -1 45
-16 52 -33 54 -98 9 -118 -80 -146 -255 -70 -422 72 -157 253 -199 358 -83 39
43 56 107 62 241 9 165 21 214 58 237 16 10 37 17 46 15 10 -2 24 -4 32 -4 51
-3 110 -114 111 -207 1 -65 -22 -109 -73 -142 -34 -23 -35 -25 -26 -63 6 -22
16 -39 25 -39 41 0 122 72 145 129 15 36 18 140 7 192 -14 63 -53 140 -86 171
-62 59 -149 72 -225 35z"/>
<path d="M6395 2797 c-73 -24 -133 -129 -142 -248 -4 -56 -1 -76 16 -113 12
-25 36 -54 54 -65 l31 -20 18 37 17 37 -29 30 c-16 17 -31 44 -33 60 -5 34 17
117 39 151 31 46 122 56 144 15 5 -10 8 -20 6 -22 -2 -2 -6 -26 -10 -54 -3
-27 -10 -73 -14 -101 -5 -28 -8 -73 -7 -102 3 -92 65 -152 158 -152 61 0 105
32 139 100 33 66 40 127 23 195 -15 58 -13 65 19 59 13 -2 28 2 34 9 13 17 25
77 15 78 -64 6 -136 21 -178 36 -61 22 -225 73 -249 77 -12 2 -34 -1 -51 -7z
m290 -171 c60 -46 82 -136 51 -209 -31 -75 -108 -95 -153 -42 -23 26 -24 34
-18 99 3 39 8 80 10 91 2 11 4 37 4 59 l1 39 36 -6 c20 -3 51 -17 69 -31z"/>
<path d="M423 2481 c-149 -51 -233 -160 -220 -286 13 -125 113 -233 223 -240
92 -6 231 48 291 113 92 101 84 259 -19 361 -70 70 -168 88 -275 52z m192 -89
c54 -27 95 -99 89 -157 -5 -45 -32 -87 -80 -124 -84 -64 -199 -83 -265 -45
-41 24 -79 87 -79 132 -1 134 210 256 335 194z"/>
<path d="M6125 2238 c-23 -21 -50 -57 -60 -80 -16 -42 -22 -138 -9 -159 7 -12
-39 11 -151 75 -44 25 -83 46 -87 46 -4 0 -16 -17 -27 -39 l-20 -38 97 -53
c53 -29 115 -63 137 -75 237 -132 404 -224 420 -233 18 -9 23 -5 42 27 l22 38
-67 38 c-237 135 -270 157 -291 195 -11 21 -21 50 -21 64 0 70 66 149 117 140
50 -9 67 -16 153 -64 204 -114 238 -131 247 -118 23 36 33 62 26 69 -14 12
-285 161 -340 186 -77 35 -132 30 -188 -19z"/>
<path d="M655 1930 c-99 -77 -195 -153 -214 -169 l-34 -28 22 -32 c12 -17 27
-31 33 -31 8 0 96 65 180 135 51 42 125 86 160 95 33 10 46 8 81 -9 47 -23 68
-50 74 -97 6 -41 -29 -77 -210 -218 l-137 -107 26 -35 c15 -19 31 -31 38 -27
6 4 67 50 136 103 151 116 168 127 208 133 45 7 104 -25 129 -71 28 -52 16
-90 -45 -139 -26 -21 -49 -41 -52 -44 -3 -3 -53 -42 -112 -88 -59 -45 -110
-86 -113 -92 -6 -9 34 -67 46 -68 4 -1 82 59 175 132 184 144 216 182 209 249
-10 96 -103 178 -202 178 -20 0 -21 3 -13 26 31 81 -20 180 -112 219 -21 8
-50 15 -65 15 l-27 0 27 28 28 29 -21 26 c-12 15 -24 27 -28 27 -4 0 -88 -63
-187 -140z"/>
<path d="M5690 1938 c-8 -13 -18 -28 -23 -35 -5 -8 8 -22 36 -41 l43 -30 23
36 23 35 -33 28 c-41 35 -50 35 -69 7z"/>
<path d="M5861 1811 c-12 -16 -21 -33 -21 -38 0 -5 26 -27 58 -49 31 -21 62
-43 67 -47 6 -5 80 -57 165 -117 165 -115 166 -116 195 -60 l14 27 -224 157
c-124 86 -227 156 -229 156 -3 0 -14 -13 -25 -29z"/>
<path d="M5777 1698 c-28 -35 -32 -48 -18 -63 15 -17 193 -376 188 -381 -4 -4
-44 11 -125 47 -23 11 -99 44 -167 74 l-125 53 -30 -31 c-36 -38 -37 -44 -7
-53 12 -3 131 -51 263 -105 133 -55 247 -99 254 -99 11 0 23 10 49 42 12 16
-2 49 -118 283 -72 146 -132 265 -134 265 -2 0 -15 -15 -30 -32z"/>
<path d="M1293 1354 c-40 -20 -41 -30 -7 -65 24 -25 28 -26 52 -13 54 28 97
17 160 -40 42 -38 61 -73 55 -106 -4 -30 -29 -69 -48 -77 -8 -2 -63 25 -123
61 -60 37 -126 72 -147 77 -89 25 -174 -23 -195 -110 -10 -44 -9 -55 8 -93 39
-84 119 -141 217 -155 48 -6 50 -9 36 -46 -8 -21 -5 -29 24 -56 l34 -30 21 43
c21 40 56 85 174 220 100 114 113 154 76 232 -61 125 -237 207 -337 158z m48
-301 c57 -31 106 -57 108 -59 8 -7 -47 -64 -80 -83 -66 -38 -149 -20 -212 46
-37 39 -40 93 -7 128 36 39 73 33 191 -32z"/>
<path d="M1878 1224 l-27 -43 33 -21 c18 -11 38 -20 43 -20 5 0 19 19 32 42
23 44 23 44 -29 72 -24 13 -26 12 -52 -30z"/>
<path d="M5314 1245 c-101 -50 -192 -175 -180 -247 7 -49 17 -78 26 -78 5 0
22 8 39 18 29 16 30 19 25 67 -4 39 -1 57 15 82 25 40 87 82 133 89 29 5 41 1
71 -26 21 -18 37 -35 37 -39 0 -4 -39 -52 -88 -107 -125 -142 -142 -187 -101
-270 39 -82 131 -109 217 -65 54 28 118 103 137 162 19 56 28 65 45 44 18 -22
41 -18 74 12 27 23 28 26 13 38 -10 7 -29 21 -43 31 -14 11 -68 71 -120 135
-125 155 -153 179 -207 179 -26 0 -63 -10 -93 -25z m250 -237 c13 -24 27 -57
31 -75 13 -66 -32 -151 -100 -185 -67 -34 -138 12 -129 84 2 26 149 217 166
218 4 0 18 -19 32 -42z"/>
<path d="M1641 857 l-151 -232 27 -22 c16 -13 33 -23 40 -23 7 0 52 61 100
135 48 75 116 178 150 230 l61 94 -38 25 -38 25 -151 -232z"/>
<path d="M5023 1023 c-37 -18 -39 -32 -24 -124 5 -30 15 -90 21 -134 7 -44 14
-91 16 -105 3 -14 7 -47 11 -75 l6 -50 -29 25 c-41 36 -41 37 -144 130 -51 47
-105 96 -120 110 -56 53 -55 53 -101 29 l-43 -21 35 -32 c35 -31 149 -133 204
-181 17 -14 65 -56 107 -92 94 -79 109 -101 113 -161 4 -60 -9 -85 -56 -111
-41 -23 -42 -39 -5 -70 35 -30 117 22 135 85 9 34 0 207 -14 264 -1 3 -5 36
-9 74 -4 38 -9 79 -11 90 -2 12 -6 41 -9 66 -3 25 -8 54 -10 65 -2 11 -10 68
-17 128 -7 59 -15 107 -18 106 -3 0 -21 -8 -38 -16z"/>
<path d="M4460 983 c-19 -8 -36 -16 -38 -17 -1 -2 16 -58 39 -125 22 -68 38
-125 36 -128 -3 -2 -15 1 -28 7 -12 7 -45 12 -73 12 -132 -2 -217 -99 -211
-242 7 -148 85 -273 196 -310 96 -33 191 -4 242 75 26 41 35 43 43 10 3 -14 7
-25 9 -25 6 0 75 31 75 33 0 2 -34 102 -76 223 -41 120 -96 280 -121 354 -25
74 -49 138 -52 141 -3 4 -22 0 -41 -8z m30 -342 c14 -10 40 -39 57 -65 78
-114 76 -259 -4 -311 -40 -27 -121 -25 -161 3 -84 60 -135 241 -92 322 39 74
134 98 200 51z"/>
<path d="M1929 968 c0 -13 -2 -32 -4 -43 -2 -11 -7 -47 -11 -80 -3 -33 -7 -67
-9 -75 -2 -9 -6 -43 -10 -75 -4 -33 -9 -69 -11 -80 -2 -11 -7 -49 -10 -85 -8
-102 -20 -134 -64 -174 -47 -42 -82 -46 -133 -16 l-34 20 -13 -29 c-17 -42
-10 -61 30 -82 46 -25 86 -24 137 3 35 19 382 316 540 462 l43 39 -30 19 c-49
30 -32 40 -224 -136 -193 -176 -179 -164 -173 -141 3 11 9 44 12 74 4 30 8 63
11 74 2 11 8 55 14 97 6 42 12 85 14 96 20 109 20 108 -25 132 -50 27 -49 27
-50 0z"/>
<path d="M3943 843 c-13 -2 -23 -11 -23 -19 0 -8 -8 -14 -17 -15 -31 -1 -55
-7 -63 -16 -5 -4 -56 -153 -114 -331 -58 -178 -109 -328 -112 -334 -4 -6 -66
139 -139 323 l-132 333 -42 1 c-23 0 -46 -2 -52 -5 -5 -4 54 -156 147 -371 85
-200 158 -369 161 -376 6 -16 89 -14 103 2 5 6 64 164 130 351 66 186 123 345
125 353 4 10 9 11 16 4 7 -7 23 -7 50 0 39 9 39 10 33 46 -10 66 -10 66 -71
54z"/>
<path d="M2452 723 c-13 -2 -44 -25 -70 -50 -46 -43 -46 -45 -27 -59 37 -27
63 -28 87 -1 46 48 89 54 175 21 71 -26 102 -89 72 -146 -10 -18 -17 -20 -77
-13 -37 3 -80 8 -97 11 -151 21 -228 -9 -260 -102 -26 -76 3 -142 83 -187 55
-31 150 -44 196 -28 11 5 33 11 49 15 25 6 27 4 27 -23 0 -32 13 -43 63 -55
26 -6 27 -5 27 31 0 36 35 185 78 333 34 118 12 170 -94 221 -50 23 -82 31
-137 34 -40 2 -82 1 -95 -2z m123 -318 c44 -4 82 -9 84 -11 8 -8 -19 -82 -40
-108 -49 -63 -147 -77 -224 -32 -99 58 -50 171 70 160 17 -1 66 -5 110 -9z"/>
<path d="M3979 633 c-25 -4 -26 -6 -18 -41 5 -20 27 -134 49 -252 22 -118 43
-225 45 -237 4 -19 10 -21 43 -16 20 3 40 8 44 12 6 5 -5 72 -80 451 -18 91
-21 93 -83 83z"/>
</g>
</svg>
