<?xml version="1.0" standalone="no"?>
<!DOCTYPE svg PUBLIC "-//W3C//DTD SVG 20010904//EN"
 "http://www.w3.org/TR/2001/REC-SVG-20010904/DTD/svg10.dtd">
<svg version="1.0" xmlns="http://www.w3.org/2000/svg"
 width="72.000000pt" height="72.000000pt" viewBox="0 0 72.000000 72.000000"
 preserveAspectRatio="xMidYMid meet">
<metadata>
Created by potrace 1.14, written by Peter Selinger 2001-2017
</metadata>
<g transform="translate(0.000000,72.000000) scale(0.100000,-0.100000)"
fill="#000000" stroke="none">
<path d="M317 713 c-16 -16 -5 -33 21 -33 20 0 23 3 12 9 -8 6 -18 7 -22 5 -4
-3 -5 2 -2 10 6 17 2 21 -9 9z"/>
<path d="M375 700 c-8 -13 4 -32 16 -25 12 8 12 35 0 35 -6 0 -13 -4 -16 -10z"/>
<path d="M260 681 c0 -25 6 -27 13 -6 4 8 2 17 -3 20 -6 4 -10 -3 -10 -14z"/>
<path d="M411 683 c0 -13 2 -14 6 -4 5 11 7 11 14 0 7 -11 9 -10 9 4 0 9 -7
17 -15 17 -8 0 -15 -8 -14 -17z"/>
<path d="M227 683 c-4 -3 -7 -11 -7 -17 0 -6 5 -4 11 4 8 12 9 10 4 -7 -4 -14
-2 -23 4 -23 6 0 11 11 11 25 0 24 -10 32 -23 18z"/>
<path d="M450 675 c0 -9 5 -15 11 -13 6 2 11 8 11 13 0 5 -5 11 -11 13 -6 2
-11 -4 -11 -13z"/>
<path d="M170 651 c-16 -18 -28 -24 -32 -17 -5 8 -8 7 -8 -1 0 -7 1 -15 3 -18
1 -2 -8 -12 -21 -21 -13 -9 -21 -22 -18 -29 2 -7 -7 -18 -21 -24 -19 -9 -23
-15 -15 -23 11 -11 35 -2 27 12 -3 4 2 11 11 14 9 3 14 13 11 21 -4 8 2 16 13
20 10 3 21 12 24 20 3 8 12 15 21 15 8 0 15 6 15 14 0 9 7 13 20 11 17 -3 19
-1 10 16 -13 23 -10 24 -40 -10z"/>
<path d="M503 664 c-3 -8 -2 -19 3 -24 5 -5 10 1 10 16 2 27 -4 31 -13 8z"/>
<path d="M426 641 c-4 -5 -1 -13 5 -17 9 -5 7 -11 -6 -20 -18 -13 -18 -14 0
-34 18 -20 35 -19 35 3 0 7 -4 6 -10 -3 -5 -8 -10 -10 -10 -5 0 31 17 34 49
11 19 -14 28 -27 22 -31 -6 -3 -11 -1 -11 5 0 6 -5 8 -12 4 -7 -4 -8 -3 -4 4
4 7 2 12 -4 12 -7 0 -9 -7 -6 -16 3 -9 6 -18 6 -20 0 -3 5 -2 10 1 6 3 10 1
10 -4 0 -6 5 -10 12 -9 7 2 13 -3 14 -9 1 -7 2 -17 3 -22 0 -5 11 -7 24 -5 12
2 16 2 10 -2 -14 -6 -18 -24 -5 -24 4 0 13 4 21 9 20 13 -31 82 -86 117 -24
15 -43 33 -43 40 0 17 -17 27 -24 15z m134 -133 c0 -4 -5 -8 -11 -8 -5 0 -7 5
-4 10 3 6 -1 13 -9 16 -9 3 -16 11 -16 17 0 5 9 2 20 -8 11 -10 20 -22 20 -27z"/>
<path d="M536 642 c-10 -9 8 -33 39 -52 35 -21 60 -27 50 -10 -4 6 -11 8 -16
5 -5 -4 -9 1 -9 9 0 9 -4 16 -9 16 -5 0 -12 8 -15 18 -6 17 -29 25 -40 14z
m42 -32 c11 -19 11 -19 -8 -8 -22 14 -36 40 -17 32 7 -2 18 -13 25 -24z"/>
<path d="M338 623 c9 -3 10 -9 3 -17 -6 -8 -6 -17 1 -26 8 -12 9 -12 4 3 -3 9
-1 17 5 17 6 0 8 -14 5 -32 -2 -18 -5 -33 -6 -33 -1 0 -3 -14 -4 -32 -2 -17
-13 -44 -25 -59 -26 -34 -27 -74 -1 -102 24 -26 24 -31 2 -58 -27 -32 -56 -44
-106 -44 -37 0 -51 6 -81 34 -30 28 -35 30 -29 13 12 -43 68 -114 108 -140 36
-22 60 -30 136 -42 35 -6 126 27 167 61 42 35 63 65 83 121 l10 28 -23 -26
c-33 -37 -59 -49 -107 -49 -45 0 -80 19 -105 56 -15 24 -15 26 9 55 15 17 27
37 27 45 1 8 2 20 3 27 3 21 -14 63 -35 86 -12 12 -17 26 -12 34 4 6 8 28 8
48 0 32 -3 36 -25 36 -14 0 -19 -2 -12 -4z"/>
<path d="M274 614 c-7 -3 -10 -13 -7 -24 6 -23 33 -35 33 -14 0 8 -4 13 -9 10
-5 -4 -7 3 -4 14 6 21 5 21 -13 14z"/>
<path d="M208 603 c7 -3 16 -2 19 1 4 3 -2 6 -13 5 -11 0 -14 -3 -6 -6z"/>
<path d="M230 593 c-21 -8 -47 -32 -81 -75 l-29 -36 30 -11 c18 -6 28 -6 25
-1 -4 6 -1 10 5 10 6 0 8 5 5 10 -3 6 -11 10 -16 10 -6 0 -7 -4 -4 -10 4 -6
-1 -7 -11 -3 -11 4 -13 8 -6 11 7 2 12 10 12 17 0 8 5 17 12 21 8 5 9 2 5 -9
-3 -10 -2 -17 2 -17 13 0 22 30 14 43 -4 7 1 6 11 -2 12 -10 14 -16 5 -21 -7
-5 -8 -10 -1 -14 14 -8 22 18 11 35 -12 19 -11 29 1 29 6 0 10 -6 10 -14 0 -7
9 -16 19 -19 14 -3 18 -1 14 9 -3 8 -9 12 -13 9 -5 -3 -6 4 -3 15 3 11 4 20 2
19 -2 0 -11 -3 -19 -6z"/>
<path d="M610 560 c0 -3 9 -23 20 -45 11 -22 20 -34 20 -27 0 7 5 10 10 7 6
-3 10 -1 10 4 0 6 -8 11 -17 12 -11 0 -13 3 -5 6 6 2 12 9 12 14 0 4 -7 6 -15
3 -10 -4 -14 -1 -12 7 2 8 2 10 -1 5 -2 -4 -8 -2 -13 5 -5 8 -9 12 -9 9z"/>
<path d="M36 499 c3 -5 0 -9 -6 -9 -6 0 -8 -4 -5 -10 3 -5 13 -10 21 -10 8 0
13 4 10 9 -4 5 -1 11 6 13 7 3 2 7 -10 10 -12 4 -20 2 -16 -3z"/>
<path d="M657 473 c-10 -9 -9 -23 2 -23 5 0 11 7 15 15 5 15 -5 20 -17 8z"/>
<path d="M115 459 c-4 -6 -4 -13 -1 -16 3 -4 6 0 6 8 0 11 2 11 10 -1 8 -13
10 -12 10 3 0 19 -15 23 -25 6z"/>
<path d="M150 444 c0 -8 5 -12 10 -9 6 4 8 11 5 16 -9 14 -15 11 -15 -7z"/>
<path d="M559 443 c-13 -15 -12 -15 7 -5 12 6 24 8 28 5 3 -3 6 -1 6 5 0 18
-25 14 -41 -5z"/>
<path d="M531 434 c0 -11 3 -14 6 -6 3 7 2 16 -1 19 -3 4 -6 -2 -5 -13z"/>
<path d="M45 316 c-3 -9 -7 -23 -10 -31 -8 -27 -28 -17 -21 11 5 17 3 23 -4
19 -15 -10 -12 -45 6 -52 8 -3 13 -12 10 -19 -8 -20 4 -44 21 -44 13 0 13 -2
2 -17 -13 -17 -13 -17 12 -1 32 20 46 12 22 -14 -19 -21 -8 -25 13 -4 24 25
15 43 -19 37 -4 -1 -5 10 -1 25 5 20 2 26 -13 30 -15 4 -19 12 -15 30 2 13 9
24 14 24 6 0 8 -9 5 -20 -3 -11 -1 -18 4 -14 14 8 11 30 -6 44 -12 10 -16 9
-20 -4z m25 -80 c0 -8 -5 -18 -11 -22 -14 -8 -33 11 -25 25 10 16 36 13 36 -3z"/>
<path d="M660 315 c0 -8 4 -15 10 -15 5 0 7 7 4 15 -4 8 -8 15 -10 15 -2 0 -4
-7 -4 -15z"/>
<path d="M690 300 c0 -5 5 -10 11 -10 5 0 7 5 4 10 -3 6 -8 10 -11 10 -2 0 -4
-4 -4 -10z"/>
<path d="M646 273 c-4 -9 -2 -21 4 -27 8 -8 9 -6 5 5 -4 10 -2 20 4 24 6 3 11
1 11 -5 0 -6 5 -8 10 -5 6 3 10 -1 10 -10 0 -9 -4 -13 -10 -10 -5 3 -10 1 -10
-4 0 -20 21 -11 29 12 5 14 4 25 -3 29 -19 13 -44 9 -50 -9z"/>
<path d="M614 217 c-9 -10 -5 -17 17 -30 16 -9 29 -12 29 -8 0 5 -7 11 -15 15
-29 11 -16 28 18 22 24 -5 27 -4 12 3 -28 13 -48 12 -61 -2z"/>
<path d="M604 181 c4 -6 16 -16 28 -22 15 -8 18 -8 14 0 -4 6 -16 16 -28 22
-15 8 -18 8 -14 0z"/>
<path d="M106 143 c-17 -24 -17 -25 -1 -16 20 11 55 6 55 -8 0 -5 -11 -7 -25
-3 -20 5 -25 3 -24 -12 0 -11 3 -14 6 -6 2 6 9 12 15 12 6 0 8 -7 4 -15 -7
-18 5 -20 23 -2 11 10 12 7 6 -13 -7 -24 -7 -24 9 -5 17 22 21 39 7 31 -5 -3
-11 3 -14 14 -3 11 -12 20 -20 20 -9 0 -17 6 -19 14 -2 10 -9 6 -22 -11z"/>
<path d="M598 160 c19 -22 14 -30 -14 -20 -14 6 -23 6 -20 1 3 -5 -3 -11 -14
-14 -11 -3 -20 -11 -19 -19 0 -10 2 -10 6 0 2 6 9 12 14 12 6 0 6 -7 0 -18
-15 -28 2 -48 23 -27 18 18 21 35 6 35 -5 0 -10 5 -10 11 0 7 10 9 25 5 30 -8
35 14 8 35 -15 11 -16 11 -5 -1z m-23 -70 c-3 -5 -11 -10 -16 -10 -6 0 -7 5
-4 10 3 6 11 10 16 10 6 0 7 -4 4 -10z"/>
<path d="M196 85 c-3 -8 -1 -15 4 -15 6 0 10 7 10 15 0 8 -2 15 -4 15 -2 0 -6
-7 -10 -15z"/>
<path d="M447 77 c-10 -10 -17 -26 -15 -35 4 -21 36 -28 52 -12 8 9 6 11 -11
6 -23 -7 -39 7 -28 24 5 8 11 7 21 -1 15 -12 17 -4 6 21 -6 14 -9 13 -25 -3z"/>
<path d="M516 86 c7 -19 -7 -21 -25 -3 -10 10 -11 9 -6 -5 4 -10 11 -18 16
-18 5 0 14 -10 19 -22 8 -20 9 -18 9 14 1 20 -3 40 -9 43 -6 3 -7 -1 -4 -9z"/>
<path d="M389 62 c-13 -38 -26 -41 -35 -7 -3 14 -10 25 -15 25 -5 0 0 -19 12
-41 l21 -42 19 43 c11 24 17 45 14 48 -3 3 -10 -9 -16 -26z"/>
<path d="M214 66 c-12 -5 -27 -18 -33 -29 -14 -21 -1 -17 32 12 20 17 46 23
61 13 6 -3 0 -9 -13 -12 -25 -6 -42 -30 -21 -30 6 0 8 4 5 10 -3 5 1 10 10 10
9 0 14 -4 10 -9 -3 -5 -1 -12 4 -15 8 -6 23 45 15 53 -8 8 -50 7 -70 -3z"/>
<path d="M410 41 c0 -11 4 -22 9 -25 4 -3 6 6 3 19 -5 30 -12 33 -12 6z"/>
</g>
</svg>
